{
  "asset": {
    "generator": "Khronos glTF Blender I/O v4.1.63",
    "version": "2.0"
  },
  "scene": 0,
  "scenes": [
    {
      "name": "Scene",
      "nodes": [
        0
      ]
    }
  ],
  "nodes": [
    {
      "mesh": 0,
      "name": "drone_rock_02_LOD0"
    }
  ],
  "materials": [
    {
      "doubleSided": true,
      "name": "drone_rock_02",
      "normalTexture": {
        "index": 0
      },
      "pbrMetallicRoughness": {
        "baseColorTexture": {
          "index": 1
        },
        "metallicFactor": 0,
        "metallicRoughnessTexture": {
          "index": 2
        }
      }
    }
  ],
  "meshes": [
    {
      "name": "drone_rock_02_10m",
      "primitives": [
        {
          "attributes": {
            "POSITION": 0,
            "NORMAL": 1,
            "TEXCOORD_0": 2
          },
          "indices": 3,
          "material": 0
        }
      ]
    }
  ],
  "textures": [
    {
      "sampler": 0,
      "source": 0
    },
    {
      "sampler": 0,
      "source": 1
    },
    {
      "sampler": 0,
      "source": 2
    }
  ],
  "images": [
    {
      "mimeType": "image/jpeg",
      "name": "namaqualand_cliff_02_nor_gl",
      "uri": "textures/namaqualand_cliff_02_nor_gl_1k.jpg"
    },
    {
      "mimeType": "image/jpeg",
      "name": "namaqualand_cliff_02_diff",
      "uri": "textures/namaqualand_cliff_02_diff_1k.jpg"
    },
    {
      "mimeType": "image/jpeg",
      "name": "namaqualand_cliff_02_rough",
      "uri": "textures/namaqualand_cliff_02_arm_1k.jpg"
    }
  ],
  "accessors": [
    {
      "bufferView": 0,
      "componentType": 5126,
      "count": 105256,
      "max": [
        10.54635238647461,
        7.023976802825928,
        2.1944217681884766
      ],
      "min": [
        -9.681148529052734,
        -0.15984418988227844,
        -4.398998737335205
      ],
      "type": "VEC3"
    },
    {
      "bufferView": 1,
      "componentType": 5126,
      "count": 105256,
      "type": "VEC3"
    },
    {
      "bufferView": 2,
      "componentType": 5126,
      "count": 105256,
      "type": "VEC2"
    },
    {
      "bufferView": 3,
      "componentType": 5125,
      "count": 582240,
      "type": "SCALAR"
    }
  ],
  "bufferViews": [
    {
      "buffer": 0,
      "byteLength": 1263072,
      "byteOffset": 0,
      "target": 34962
    },
    {
      "buffer": 0,
      "byteLength": 1263072,
      "byteOffset": 1263072,
      "target": 34962
    },
    {
      "buffer": 0,
      "byteLength": 842048,
      "byteOffset": 2526144,
      "target": 34962
    },
    {
      "buffer": 0,
      "byteLength": 2328960,
      "byteOffset": 3368192,
      "target": 34963
    }
  ],
  "samplers": [
    {
      "magFilter": 9729,
      "minFilter": 9987
    }
  ],
  "buffers": [
    {
      "byteLength": 5697152,
      "uri": "namaqualand_cliff_02.bin"
    }
  ]
}