{
  "asset": {
    "generator": "Khronos glTF Blender I/O v4.2.57",
    "version": "2.0"
  },
  "scene": 0,
  "scenes": [
    {
      "name": "Scene",
      "nodes": [
        0
      ]
    }
  ],
  "nodes": [
    {
      "mesh": 0,
      "name": "boulder_03_LOD0"
    }
  ],
  "materials": [
    {
      "doubleSided": true,
      "name": "boulder_03",
      "normalTexture": {
        "index": 0
      },
      "pbrMetallicRoughness": {
        "baseColorTexture": {
          "index": 1
        },
        "metallicFactor": 0,
        "metallicRoughnessTexture": {
          "index": 2
        }
      }
    }
  ],
  "meshes": [
    {
      "name": "realCap_Model_2",
      "primitives": [
        {
          "attributes": {
            "POSITION": 0,
            "NORMAL": 1,
            "TEXCOORD_0": 2
          },
          "indices": 3,
          "material": 0
        }
      ]
    }
  ],
  "textures": [
    {
      "sampler": 0,
      "source": 0
    },
    {
      "sampler": 0,
      "source": 1
    },
    {
      "sampler": 0,
      "source": 2
    }
  ],
  "images": [
    {
      "mimeType": "image/jpeg",
      "name": "boulder_03_nor_gl",
      "uri": "textures/namaqualand_boulder_03_nor_gl_1k.jpg"
    },
    {
      "mimeType": "image/jpeg",
      "name": "boulder_03_diff",
      "uri": "textures/namaqualand_boulder_03_diff_1k.jpg"
    },
    {
      "mimeType": "image/jpeg",
      "name": "boulder_03_rough",
      "uri": "textures/namaqualand_boulder_03_arm_1k.jpg"
    }
  ],
  "accessors": [
    {
      "bufferView": 0,
      "componentType": 5126,
      "count": 33166,
      "max": [
        1.3522862195968628,
        1.4584896564483643,
        1.6758253574371338
      ],
      "min": [
        -1.054810881614685,
        -0.014703452587127686,
        -1.3895807266235352
      ],
      "type": "VEC3"
    },
    {
      "bufferView": 1,
      "componentType": 5126,
      "count": 33166,
      "type": "VEC3"
    },
    {
      "bufferView": 2,
      "componentType": 5126,
      "count": 33166,
      "type": "VEC2"
    },
    {
      "bufferView": 3,
      "componentType": 5123,
      "count": 194478,
      "type": "SCALAR"
    }
  ],
  "bufferViews": [
    {
      "buffer": 0,
      "byteLength": 397992,
      "byteOffset": 0,
      "target": 34962
    },
    {
      "buffer": 0,
      "byteLength": 397992,
      "byteOffset": 397992,
      "target": 34962
    },
    {
      "buffer": 0,
      "byteLength": 265328,
      "byteOffset": 795984,
      "target": 34962
    },
    {
      "buffer": 0,
      "byteLength": 388956,
      "byteOffset": 1061312,
      "target": 34963
    }
  ],
  "samplers": [
    {
      "magFilter": 9729,
      "minFilter": 9987
    }
  ],
  "buffers": [
    {
      "byteLength": 1450268,
      "uri": "namaqualand_boulder_03.bin"
    }
  ]
}